<?xml version="1.0" encoding="UTF-8" standalone="no"?>
<!-- Created with Inkscape (http://www.inkscape.org/) -->

<svg
   xmlns:dc="http://purl.org/dc/elements/1.1/"
   xmlns:cc="http://creativecommons.org/ns#"
   xmlns:rdf="http://www.w3.org/1999/02/22-rdf-syntax-ns#"
   xmlns:svg="http://www.w3.org/2000/svg"
   xmlns="http://www.w3.org/2000/svg"
   xmlns:sodipodi="http://sodipodi.sourceforge.net/DTD/sodipodi-0.dtd"
   xmlns:inkscape="http://www.inkscape.org/namespaces/inkscape"
   width="900"
   height="500"
   id="svg4146"
   version="1.1"
   inkscape:version="0.48.5 r10040"
   sodipodi:docname="caiuss.svg"
   inkscape:export-filename="/home/ionicabizau/Documents/caiuss/logo/caiuss.png"
   inkscape:export-xdpi="90"
   inkscape:export-ydpi="90">
  <defs
     id="defs4148" />
  <sodipodi:namedview
     id="base"
     pagecolor="#ffffff"
     bordercolor="#666666"
     borderopacity="1.0"
     inkscape:pageopacity="0.0"
     inkscape:pageshadow="2"
     inkscape:zoom="1.4"
     inkscape:cx="448.00224"
     inkscape:cy="271.35123"
     inkscape:document-units="px"
     inkscape:current-layer="layer1"
     showgrid="false"
     inkscape:window-width="1920"
     inkscape:window-height="1056"
     inkscape:window-x="0"
     inkscape:window-y="24"
     inkscape:window-maximized="1" />
  <metadata
     id="metadata4151">
    <rdf:RDF>
      <cc:Work
         rdf:about="">
        <dc:format>image/svg+xml</dc:format>
        <dc:type
           rdf:resource="http://purl.org/dc/dcmitype/StillImage" />
        <dc:title></dc:title>
      </cc:Work>
    </rdf:RDF>
  </metadata>
  <g
     inkscape:label="Layer 1"
     inkscape:groupmode="layer"
     id="layer1"
     transform="translate(0,-552.36218)">
    <g
       id="g2989"
       transform="translate(155.29755,20)">
      <g
         style="fill:#1abc9c"
         id="g4501"
         transform="matrix(-0.59310544,0,0,0.59310544,345.43912,411.73271)">
        <path
           style="fill:#1abc9c"
           id="path4503"
           d="m 147.71403,318.09045 c -26.31762,21.62354 -12.38688,16.53723 -2.2073,18.86245 28.637,6.54118 51.25802,26.95709 71.03517,45.14944 20.63926,18.98541 14.20627,19.15648 29.09632,9.02991 123.23022,-83.80773 234.64051,11.68997 237.18522,89.49629 0.63771,19.49835 1.13714,17.13856 -6.82261,20.46776 -1.26119,0.5275 -23.98832,7.62322 -26.48767,8.42789 -15.30942,4.92892 -11.8663,1.01087 -11.23721,11.63856 7.11026,38.37308 -7.39519,79.74166 -5.61861,111.97063 2.50912,39.27109 6.59822,50.49128 33.31028,88.29237 18.81256,26.62224 16.97647,16.90186 18.05979,-3.61198 4.00627,-65.36261 40.34935,-121.1796 64.2126,-192.63773 C 632.319,273.40271 341.19239,159.1215 147.71403,318.09045 z m 101.13482,89.89761 c -9.67425,7.25167 -12.8097,8.96807 -8.02658,14.44784 3.49232,4.00098 7.13891,7.87536 10.43455,12.03983 5.30186,6.69956 8.00116,10.38503 16.05312,4.01329 56.74423,-44.90319 134.56775,-18.30678 158.92614,39.53087 8.92541,21.19291 0.20561,20.1906 19.26379,15.04982 1.02488,-0.27624 20.86907,-4.01329 20.86907,-4.01329 10.07845,-2.87672 10.77506,-0.29074 2.40797,-21.67172 C 429.01826,365.78676 322.9461,352.44579 248.84885,407.98806 z m -81.06841,262.46897 c -5.90433,9.11263 -2.8124,7.63695 4.01329,13.24383 37.72721,30.99056 127.1962,18.60076 144.4783,-21.27041 10.01178,-23.09799 3.65997,-13.69542 18.46114,-3.21063 15.05202,10.6625 49.58096,20.31542 62.89105,22.32832 16.97184,2.56662 18.21677,6.88225 14.16402,-10.28848 -5.67106,-35.83595 -3.41896,-63.78891 2.83781,-97.35663 29.2575,-156.96703 -91.98118,-166.62205 -149.72408,-115.34756 -7.13083,6.33199 -102.38184,103.69129 -103.54275,105.1481 -7.93656,9.95945 -9.53837,10.57713 -4.81595,14.4478 0.34412,0.28217 12.84252,9.6319 12.84252,9.6319 6.36768,3.77871 5.42275,2.34293 12.84249,-4.01329 24.57244,-21.05029 64.9452,-68.54227 67.42323,-69.83115 23.69121,-12.32271 61.2415,8.95323 73.04178,32.90893 5.72374,11.61973 6.61854,9.0676 -4.81595,17.65847 -19.9037,14.95389 -60.30518,18.89689 -78.66039,-3.41131 -4.01203,-4.87604 -11.23721,12.24055 -11.23721,12.24055 -0.96872,3.33778 -59.84452,96.574 -60.1993,97.12156 z"
           inkscape:connector-curvature="0" />
      </g>
      <text
         sodipodi:linespacing="125%"
         id="text4532"
         y="700.23236"
         x="216.10141"
         style="font-size:54.01369095px;font-style:normal;font-weight:normal;line-height:125%;letter-spacing:0px;word-spacing:0px;fill:#1abc9c;fill-opacity:1;stroke:none;font-family:monaco;-inkscape-font-specification:monaco"
         xml:space="preserve"><tspan
           style="font-size:108.0273819px;font-weight:normal;fill:#1abc9c;font-family:Cinzel;-inkscape-font-specification:Cinzel"
           y="700.23236"
           x="216.10141"
           id="tspan4534"
           sodipodi:role="line">CaiuSS</tspan></text>
      <text
         sodipodi:linespacing="125%"
         id="text4536"
         y="729.16833"
         x="577.08923"
         style="font-size:54.01369095px;font-style:normal;font-weight:normal;line-height:125%;letter-spacing:0px;word-spacing:0px;fill:#1abc9c;fill-opacity:1;stroke:none;font-family:monaco;-inkscape-font-specification:monaco"
         xml:space="preserve"><tspan
           style="font-size:27.00684547px;font-style:normal;font-variant:normal;font-weight:normal;font-stretch:normal;text-align:end;text-anchor:end;fill:#1abc9c;font-family:Sofia;-inkscape-font-specification:Sofia"
           id="tspan4542"
           y="729.16833"
           x="577.08923"
           sodipodi:role="line">A Minimalist and Civilized</tspan><tspan
           id="tspan2988"
           style="font-size:27.00684547px;font-style:normal;font-variant:normal;font-weight:normal;font-stretch:normal;text-align:end;text-anchor:end;fill:#1abc9c;font-family:Sofia;-inkscape-font-specification:Sofia"
           y="762.92688"
           x="577.08923"
           sodipodi:role="line">CSS Framework.</tspan></text>
    </g>
  </g>
</svg>
